<svg width="146" height="197" viewBox="0 0 146 197" fill="none" xmlns="http://www.w3.org/2000/svg">
<path fill-rule="evenodd" clip-rule="evenodd" d="M71.363 16.6963L71.3281 33.3926L65.3114 37.9921C38.7182 58.3209 36.7913 59.9741 39.608 60.0409C40.3177 60.0573 42.0964 61.1249 43.5614 62.4141L46.2241 64.7565V112.714C46.2241 141.153 45.8629 160.672 45.3362 160.672C43.5362 160.672 33.5467 149.601 30.4899 143.5C27.3973 137.331 26.6802 134.5 26 125.343C26 115.5 28.5204 110.471 30.4899 107.14C33.4999 103 32.6685 102.5 32.6685 83.6344C32.6685 59 33.2339 61.9341 24.3782 70.3529C7.76292 86.148 0.256967 103.434 0.5 125.343C0.620064 136.17 2.80252 145.514 7.54312 155.499C16.2574 173.85 30.3411 186.049 50.9999 193.5C56.6129 195.525 65.4999 197 72.4999 197C79.4999 197 95.6954 194.772 109.007 187.222C118.63 181.763 131.651 169.276 134.672 162.607C135.034 161.809 136.643 158.76 138.248 155.832C145.176 143.197 147.467 122.766 143.675 107.437C140.612 95.0595 134.206 83.3547 125.739 74.6697C118.643 67.3901 110.007 60.9216 105.617 59.5976C101.327 58.3035 101.149 56.5738 105.038 53.9702C107.039 52.6306 109.766 50.598 111.097 49.4539C112.429 48.3109 115.849 45.5998 118.697 43.4317C121.546 41.2626 123.507 39.1574 123.054 38.7538C122.238 38.0259 106.843 25.8294 102.577 22.5318C101.351 21.5842 99.5316 20.1565 98.5323 19.358C97.5331 18.5595 94.699 16.3817 92.2328 14.5185C89.7676 12.6553 86.7234 10.2598 85.4695 9.19506C84.2156 8.13037 82.2181 6.60593 81.032 5.80741C79.8459 5.00889 77.6751 3.37604 76.2082 2.17778C74.7403 0.979516 73.0584 0 72.4697 0C71.73 0 71.3882 5.16859 71.363 16.6963ZM81.6556 41.1358C82.7623 42.2005 84.664 43.7249 85.884 44.5235C87.103 45.322 90.2092 47.7175 92.7867 49.8469C97.2106 53.5007 97.3743 53.7998 95.704 55.1704C85.7184 63.3637 79.1052 68.599 76.486 70.3858L73.3353 72.5345V53.7185V34.9025L76.4899 37.0513C78.225 38.2331 80.5498 40.0711 81.6556 41.1358ZM86.5985 80.8101C102.68 85.9419 113.903 98.3223 117.391 114.776C119.209 123.352 119.192 126.331 117.285 134.718C115.902 140.791 112.614 147.573 108.193 153.468C105.009 157.712 96.6432 163.66 89.7783 166.561C83.3897 169.261 81.4464 169.627 73.3353 169.656C68.2762 169.674 63.0873 169.258 61.8043 168.731C59.5251 167.796 59.5919 167.687 64.7091 163.977C67.5897 161.888 72.705 158.015 76.0774 155.369C82.8775 150.033 82.9017 150.874 75.8015 145.866L73.3353 144.127V111.263V78.4H76.1898C77.7603 78.4 82.4437 79.485 86.5985 80.8101Z" fill="white"/>
<path fill-rule="evenodd" clip-rule="evenodd" d="M71.363 16.6963L71.3281 33.3926L65.3114 37.9921C38.7182 58.3209 36.7913 59.9741 39.608 60.0409C40.3177 60.0573 42.0964 61.1249 43.5614 62.4141L46.2241 64.7565V112.714C46.2241 141.153 45.8629 160.672 45.3362 160.672C43.5362 160.672 33.5467 149.601 30.4899 143.5C27.3973 137.331 26.6802 134.5 26 125.343C26 115.5 28.5204 110.471 30.4899 107.14C33.4999 103 32.6685 102.5 32.6685 83.6344C32.6685 59 33.2339 61.9341 24.3782 70.3529C7.76292 86.148 0.256967 103.434 0.5 125.343C0.620064 136.17 2.80252 145.514 7.54312 155.499C16.2574 173.85 30.3411 186.049 50.9999 193.5C56.6129 195.525 65.4999 197 72.4999 197C79.4999 197 95.6954 194.772 109.007 187.222C118.63 181.763 131.651 169.276 134.672 162.607C135.034 161.809 136.643 158.76 138.248 155.832C145.176 143.197 147.467 122.766 143.675 107.437C140.612 95.0595 134.206 83.3547 125.739 74.6697C118.643 67.3901 110.007 60.9216 105.617 59.5976C101.327 58.3035 101.149 56.5738 105.038 53.9702C107.039 52.6306 109.766 50.598 111.097 49.4539C112.429 48.3109 115.849 45.5998 118.697 43.4317C121.546 41.2626 123.507 39.1574 123.054 38.7538C122.238 38.0259 106.843 25.8294 102.577 22.5318C101.351 21.5842 99.5316 20.1565 98.5323 19.358C97.5331 18.5595 94.699 16.3817 92.2328 14.5185C89.7676 12.6553 86.7234 10.2598 85.4695 9.19506C84.2156 8.13037 82.2181 6.60593 81.032 5.80741C79.8459 5.00889 77.6751 3.37604 76.2082 2.17778C74.7403 0.979516 73.0584 0 72.4697 0C71.73 0 71.3882 5.16859 71.363 16.6963ZM81.6556 41.1358C82.7623 42.2005 84.664 43.7249 85.884 44.5235C87.103 45.322 90.2092 47.7175 92.7867 49.8469C97.2106 53.5007 97.3743 53.7998 95.704 55.1704C85.7184 63.3637 79.1052 68.599 76.486 70.3858L73.3353 72.5345V53.7185V34.9025L76.4899 37.0513C78.225 38.2331 80.5498 40.0711 81.6556 41.1358ZM86.5985 80.8101C102.68 85.9419 113.903 98.3223 117.391 114.776C119.209 123.352 119.192 126.331 117.285 134.718C115.902 140.791 112.614 147.573 108.193 153.468C105.009 157.712 96.6432 163.66 89.7783 166.561C83.3897 169.261 81.4464 169.627 73.3353 169.656C68.2762 169.674 63.0873 169.258 61.8043 168.731C59.5251 167.796 59.5919 167.687 64.7091 163.977C67.5897 161.888 72.705 158.015 76.0774 155.369C82.8775 150.033 82.9017 150.874 75.8015 145.866L73.3353 144.127V111.263V78.4H76.1898C77.7603 78.4 82.4437 79.485 86.5985 80.8101Z" fill="white"/>
<path d="M71.363 16.6963L71.3281 33.3926L65.3114 37.9921C38.7182 58.3209 36.7913 59.9741 39.608 60.0409C40.3177 60.0573 42.0964 61.1249 43.5614 62.4141L46.2241 64.7565V112.714C46.2241 141.153 45.8629 160.672 45.3362 160.672C43.5362 160.672 33.5467 149.601 30.4899 143.5C27.3973 137.331 26.6802 134.5 26 125.343C26 115.5 28.5204 110.471 30.4899 107.14C33.4999 103 32.6685 102.5 32.6685 83.6344C32.6685 59 33.2339 61.9341 24.3782 70.3529C7.76292 86.148 0.256967 103.434 0.5 125.343C0.620064 136.17 2.80252 145.514 7.54312 155.499C16.2574 173.85 30.3411 186.049 50.9999 193.5C56.6129 195.525 65.4999 197 72.4999 197C79.4999 197 95.6954 194.772 109.007 187.222C118.63 181.763 131.651 169.276 134.672 162.607C135.034 161.809 136.643 158.76 138.248 155.832C145.176 143.197 147.467 122.766 143.675 107.437C140.612 95.0595 134.206 83.3547 125.739 74.6697C118.643 67.3901 110.007 60.9216 105.617 59.5976C101.327 58.3035 101.149 56.5738 105.038 53.9702C107.039 52.6306 109.766 50.598 111.097 49.4539C112.429 48.3109 115.849 45.5998 118.697 43.4317C121.546 41.2626 123.507 39.1574 123.054 38.7538C122.238 38.0259 106.843 25.8294 102.577 22.5318C101.351 21.5842 99.5316 20.1565 98.5323 19.358C97.5331 18.5595 94.699 16.3817 92.2328 14.5185C89.7676 12.6553 86.7234 10.2598 85.4695 9.19506C84.2156 8.13037 82.2181 6.60593 81.032 5.80741C79.8459 5.00889 77.6751 3.37604 76.2082 2.17778C74.7403 0.979516 73.0584 0 72.4697 0C71.73 0 71.3882 5.16859 71.363 16.6963ZM81.6556 41.1358C82.7623 42.2005 84.664 43.7249 85.884 44.5235C87.103 45.322 90.2092 47.7175 92.7867 49.8469C97.2106 53.5007 97.3743 53.7998 95.704 55.1704C85.7184 63.3637 79.1052 68.599 76.486 70.3858L73.3353 72.5345V53.7185V34.9025L76.4899 37.0513C78.225 38.2331 80.5498 40.0711 81.6556 41.1358ZM86.5985 80.8101C102.68 85.9419 113.903 98.3223 117.391 114.776C119.209 123.352 119.192 126.331 117.285 134.718C115.902 140.791 112.614 147.573 108.193 153.468C105.009 157.712 96.6432 163.66 89.7783 166.561C83.3897 169.261 81.4464 169.627 73.3353 169.656C68.2762 169.674 63.0873 169.258 61.8043 168.731C59.5251 167.796 59.5919 167.687 64.7091 163.977C67.5897 161.888 72.705 158.015 76.0774 155.369C82.8775 150.033 82.9017 150.874 75.8015 145.866L73.3353 144.127V111.263V78.4H76.1898C77.7603 78.4 82.4437 79.485 86.5985 80.8101Z" stroke="black"/>
</svg>
